# xmcd
#
# Track frame offsets: 
#        182
#        15345
#        26512
#        38397
#        52152
#        64920
#        77800
#        91575
#        104667
#        117575
#        132125
#        144027
#        155285
#        169100
#        182272
#        195365
#        206787
#
# Disc length: 2932 seconds
#
# Revision: 0
# Processed by: cddbd v1.5.2PL0 Copyright (c) Steve Scherf et al.
# Submitted via: ExactAudioCopyFreeDBPlugin 1.0
#
DISCID=d20b7211
DTITLE=Muddy Waters - Muddy Waters On Chess vol.2 "1951-1959"
DYEAR=1984
DGENRE=Blues
TTITLE0=She Moves Me
TTITLE1=Still A Fool
TTITLE2=They Call Me Muddy Waters
TTITLE3=Standing Around Crying
TTITLE4=She's All Right
TTITLE5=My Life Is Ruined
TTITLE6=I Want You To Love Me
TTITLE7=(I'm Your) Hoochie-Coochie Man
TTITLE8=I Just Want To Make Love To You
TTITLE9=I'm Ready
TTITLE10=Mannish Boy
TTITLE11=40 Days and Nights
TTITLE12=Just To Be With You
TTITLE13=Walking Thru The Park
TTITLE14=Crawlin' Kingsnake
TTITLE15=Lonsome Road Blues
TTITLE16=Mopper's Blues
EXTD=
EXTT0=
EXTT1=
EXTT2=
EXTT3=
EXTT4=
EXTT5=
EXTT6=
EXTT7=
EXTT8=
EXTT9=
EXTT10=
EXTT11=
EXTT12=
EXTT13=
EXTT14=
EXTT15=
EXTT16=
PLAYORDER=
